<svg  viewBox="0 0 146 51" fill="none" xmlns="http://www.w3.org/2000/svg">
<path d="M0.64 20.336C0.64 14.256 1.456 9.76 3.088 6.848C4.752 3.936 7.84 2.48 12.352 2.48C15.84 2.48 19.744 2.88 24.064 3.68V6.512H23.632C23.344 6.48 22.96 6.448 22.48 6.416C22 6.384 21.44 6.352 20.8 6.32C20.192 6.288 19.52 6.256 18.784 6.224C18.048 6.192 17.312 6.16 16.576 6.128C15.872 6.096 15.136 6.08 14.368 6.08C13.632 6.048 12.96 6.032 12.352 6.032C10.272 6.032 8.656 6.432 7.504 7.232C6.384 8 5.552 9.424 5.008 11.504C4.464 13.552 4.192 16.528 4.192 20.432C4.192 29.968 6.912 34.736 12.352 34.736L24.064 34.4V37.232C20.288 37.936 16.384 38.288 12.352 38.288C4.544 38.288 0.64 32.304 0.64 20.336ZM28.63 38V0.367998H32.182V15.488C32.278 15.456 32.63 15.264 33.238 14.912C33.846 14.528 34.214 14.304 34.342 14.24C34.502 14.176 34.854 14 35.398 13.712C35.942 13.392 36.326 13.2 36.55 13.136C36.774 13.072 37.142 12.944 37.654 12.752C38.166 12.56 38.582 12.432 38.902 12.368C39.254 12.304 39.67 12.24 40.15 12.176C40.63 12.112 41.11 12.08 41.59 12.08C44.022 12.08 45.942 12.88 47.35 14.48C48.758 16.08 49.462 18 49.462 20.24V38H45.91V20.24C45.91 18.704 45.51 17.552 44.71 16.784C43.942 16.016 42.902 15.632 41.59 15.632C40.374 15.632 39.222 15.76 38.134 16.016C37.046 16.272 36.166 16.544 35.494 16.832C34.854 17.088 33.75 17.6 32.182 18.368V38H28.63ZM53.7794 31.952V29.024C53.7794 27.072 54.3394 25.52 55.4594 24.368C56.6114 23.216 58.1794 22.64 60.1634 22.64C63.3314 22.64 65.9554 22.64 68.0354 22.64C68.8994 22.64 69.5714 22.64 70.0514 22.64C70.5634 22.64 70.8194 22.64 70.8194 22.64C70.8194 21.712 70.8194 20.928 70.8194 20.288C70.8194 20.16 70.8194 20.048 70.8194 19.952C70.8194 19.856 70.8194 19.776 70.8194 19.712C70.8194 19.616 70.8194 19.552 70.8194 19.52C70.8194 19.456 70.8194 19.424 70.8194 19.424C70.8194 16.8 69.5074 15.488 66.8834 15.488C64.0034 15.488 59.9074 15.68 54.5954 16.064V13.472C57.8274 12.576 61.9714 12.096 67.0274 12.032C67.0594 12.032 67.1074 12.032 67.1714 12.032C69.2834 12.032 71.0114 12.656 72.3554 13.904C73.6994 15.12 74.3714 16.96 74.3714 19.424V38H71.7314L70.8194 34.928L70.0994 35.264C69.6514 35.488 69.0434 35.776 68.2754 36.128C67.5074 36.448 66.6754 36.784 65.7794 37.136C64.8834 37.456 63.9234 37.728 62.8994 37.952C61.8754 38.176 60.9634 38.288 60.1634 38.288C58.3394 38.288 56.8194 37.728 55.6034 36.608C54.3874 35.488 53.7794 33.936 53.7794 31.952ZM57.3314 31.712C57.3314 33.728 58.2754 34.736 60.1634 34.736C61.3154 34.736 62.7714 34.528 64.5314 34.112C66.3234 33.696 67.8274 33.296 69.0434 32.912L70.8194 32.288V25.424L60.1634 26.192C59.2034 26.288 58.4834 26.624 58.0034 27.2C57.5554 27.776 57.3314 28.48 57.3314 29.312V31.712ZM77.71 16.016V13.328L82.462 12.464L83.326 5.36H86.014V12.464H93.454V16.016H86.014V28.88C86.014 30.832 86.238 32.192 86.686 32.96C87.134 33.696 87.822 34.176 88.75 34.4C91.374 35.072 92.798 35.408 93.022 35.408V37.952H88.798C84.574 37.952 82.462 34.928 82.462 28.88V16.016H77.71ZM97.2906 30.272V12.512H100.843V30.272C100.843 31.776 101.243 32.928 102.043 33.728C102.843 34.496 103.883 34.88 105.163 34.88C106.379 34.88 107.531 34.752 108.619 34.496C109.707 34.24 110.571 33.984 111.211 33.728C111.883 33.44 113.003 32.912 114.571 32.144V12.512H118.123V38H115.627L114.571 35.024C114.475 35.056 114.123 35.264 113.515 35.648C112.907 36 112.523 36.208 112.363 36.272C112.235 36.336 111.899 36.528 111.355 36.848C110.811 37.136 110.427 37.312 110.203 37.376C109.979 37.44 109.611 37.568 109.099 37.76C108.587 37.952 108.155 38.08 107.803 38.144C107.483 38.208 107.083 38.272 106.603 38.336C106.123 38.4 105.643 38.432 105.163 38.432C102.731 38.432 100.811 37.632 99.4026 36.032C97.9946 34.432 97.2906 32.512 97.2906 30.272ZM123.88 50.96V12.512H126.424L127.336 15.344C128.136 14.768 129.544 14.112 131.56 13.376C133.576 12.608 135.32 12.224 136.792 12.224C138.456 12.224 139.864 12.608 141.016 13.376C142.168 14.144 143.032 15.2 143.608 16.544C144.184 17.856 144.584 19.216 144.808 20.624C145.064 22 145.192 23.504 145.192 25.136C145.192 26.992 145.08 28.624 144.856 30.032C144.664 31.408 144.28 32.784 143.704 34.16C143.16 35.504 142.296 36.544 141.112 37.28C139.96 38.016 138.52 38.384 136.792 38.384C135.608 38.384 134.088 38.208 132.232 37.856C130.408 37.504 128.776 37.04 127.336 36.464V50.96H123.88ZM127.336 33.584C130.536 34.416 133.688 34.832 136.792 34.832C138.456 34.832 139.672 34.144 140.44 32.768C141.24 31.392 141.64 28.848 141.64 25.136C141.64 18.896 140.024 15.776 136.792 15.776C134.104 15.776 130.952 16.512 127.336 17.984V33.584Z" fill="white"/>
</svg>
