<svg viewBox="0 0 160 118" fill="none" xmlns="http://www.w3.org/2000/svg">
    <g filter="url(#filter0_d_128_2)">
        <rect x="4" y="37" width="152" height="52" rx="26" fill="#F2F2F2" />
        <path
            d="M54.263 109.092C54.1718 110.012 52.988 110.326 52.4526 109.572L36.1213 86.5791C35.651 85.9169 36.1244 85 36.9366 85L55.5464 85C56.1377 85 56.5998 85.5102 56.5415 86.0986L54.263 109.092Z"
            fill="#F2F2F2" />
    </g>
    <g filter="url(#filter1_d_128_2)">
        <rect x="4" width="152" height="52" rx="26" fill="#F2F2F2" />
        <path
            d="M104.277 72.5717C103.768 73.3356 102.585 73.0675 102.455 72.1588L99.163 49.1416C99.0768 48.5391 99.5443 48 100.153 48L118.782 48C119.581 48 120.057 48.89 119.615 49.5545L104.277 72.5717Z"
            fill="#F2F2F2" />
    </g>
    <defs>
        <filter id="filter0_d_128_2" x="0" y="37" width="160" height="80.9941" filterUnits="userSpaceOnUse"
            color-interpolation-filters="sRGB">
            <feFlood flood-opacity="0" result="BackgroundImageFix" />
            <feColorMatrix in="SourceAlpha" type="matrix" values="0 0 0 0 0 0 0 0 0 0 0 0 0 0 0 0 0 0 127 0"
                result="hardAlpha" />
            <feOffset dy="4" />
            <feGaussianBlur stdDeviation="2" />
            <feComposite in2="hardAlpha" operator="out" />
            <feColorMatrix type="matrix" values="0 0 0 0 0 0 0 0 0 0 0 0 0 0 0 0 0 0 0.25 0" />
            <feBlend mode="normal" in2="BackgroundImageFix" result="effect1_dropShadow_128_2" />
            <feBlend mode="normal" in="SourceGraphic" in2="effect1_dropShadow_128_2" result="shape" />
        </filter>
        <filter id="filter1_d_128_2" x="0" y="0" width="160" height="81.0181" filterUnits="userSpaceOnUse"
            color-interpolation-filters="sRGB">
            <feFlood flood-opacity="0" result="BackgroundImageFix" />
            <feColorMatrix in="SourceAlpha" type="matrix" values="0 0 0 0 0 0 0 0 0 0 0 0 0 0 0 0 0 0 127 0"
                result="hardAlpha" />
            <feOffset dy="4" />
            <feGaussianBlur stdDeviation="2" />
            <feComposite in2="hardAlpha" operator="out" />
            <feColorMatrix type="matrix" values="0 0 0 0 0 0 0 0 0 0 0 0 0 0 0 0 0 0 0.25 0" />
            <feBlend mode="normal" in2="BackgroundImageFix" result="effect1_dropShadow_128_2" />
            <feBlend mode="normal" in="SourceGraphic" in2="effect1_dropShadow_128_2" result="shape" />
        </filter>
    </defs>
</svg>